<svg width="32" height="32" viewBox="0 0 32 32" fill="none" xmlns="http://www.w3.org/2000/svg">
<path d="M8 5.33333H10.6667V8.74279C12.2534 7.496 14.2541 6.7524 16.4286 6.7524C21.5833 6.7524 25.7619 10.9311 25.7619 16.0857C25.7619 21.2404 21.5833 25.4191 16.4286 25.4191C13.5613 25.4191 10.9959 24.1261 9.28385 22.0914L11.443 20.5117C12.6642 21.8863 14.4452 22.7524 16.4286 22.7524C20.1105 22.7524 23.0953 19.7676 23.0953 16.0857C23.0953 12.4038 20.1105 9.41906 16.4286 9.41906C14.9795 9.41906 13.6383 9.88142 12.5447 10.6667L16 10.6667V13.3333H8V5.33333Z" fill="#2E3A59"/>
</svg>
